name 900006_16ik_lsw.mot
datacolumns 165
datarows 4
range 0.73333333 0.75833333
cursor 1.0 1.0 0.0
keys m_key
wrap
enforce_loops no
enforce_constraints no
calc_derivatives 0.008333
event_color 1.000000 0.000000 1.000000
endheader

                time	          calcn_r_tx	          calcn_r_ty	          calcn_r_tz	          calcn_r_r1	          calcn_r_r2	          calcn_r_r3	          calcn_l_tx	          calcn_l_ty	          calcn_l_tz	          calcn_l_r1	          calcn_l_r2	          calcn_l_r3	           pelvis_tz	           pelvis_tx	           pelvis_ty	         pelvis_tilt	         pelvis_list	     pelvis_rotation	       hip_flexion_r	     hip_adduction_r	      hip_rotation_r	        knee_angle_r	       ankle_angle_r	    subtalar_angle_r	         mtp_angle_r	       hip_flexion_l	     hip_adduction_l	      hip_rotation_l	        knee_angle_l	       ankle_angle_l	    subtalar_angle_l	         mtp_angle_l	    lumbar_extension	      lumbar_bending	     lumbar_rotation	     ground_force_px	     ground_force_py	     ground_force_pz	     ground_force_vx	     ground_force_vy	     ground_force_vz	     ground_force_px	     ground_force_py	     ground_force_pz	     ground_force_vx	     ground_force_vy	     ground_force_vz	     ground_torque_x	     ground_torque_y	     ground_torque_z	     ground_torque_x	     ground_torque_y	     ground_torque_z	           midhip_px	           midhip_py	           midhip_pz	            hip_r_px	            hip_r_py	            hip_r_pz	            hip_l_px	            hip_l_py	            hip_l_pz	           knee_r_px	           knee_r_py	           knee_r_pz	           knee_l_px	           knee_l_py	           knee_l_pz	          ankle_r_px	          ankle_r_py	          ankle_r_pz	          ankle_l_px	          ankle_l_py	          ankle_l_pz	          midasis_px	          midasis_py	          midasis_pz	           asis_r_px	           asis_r_py	           asis_r_pz	           asis_l_px	           asis_l_py	           asis_l_pz	           psis_r_px	           psis_r_py	           psis_r_pz	           psis_l_px	           psis_l_py	           psis_l_pz	     epicondLat_r_px	     epicondLat_r_py	     epicondLat_r_pz	     epicondLat_l_px	     epicondLat_l_py	     epicondLat_l_pz	     epicondMed_r_px	     epicondMed_r_py	     epicondMed_r_pz	     epicondMed_l_px	     epicondMed_l_py	     epicondMed_l_pz	   malleolusLat_r_px	   malleolusLat_r_py	   malleolusLat_r_pz	   malleolusLat_l_px	   malleolusLat_l_py	   malleolusLat_l_pz	  malleolusMedv_r_px	  malleolusMedv_r_py	  malleolusMedv_r_pz	  malleolusMedv_l_px	  malleolusMedv_l_py	  malleolusMedv_l_pz	     sternalnotch_px	     sternalnotch_py	     sternalnotch_pz	   xyphoidprocess_px	   xyphoidprocess_py	   xyphoidprocess_pz	             neck_px	             neck_py	             neck_pz	            toe_r_px	            toe_r_py	            toe_r_pz	            toe_l_px	            toe_l_py	            toe_l_pz	      thighwand_r_px	      thighwand_r_py	      thighwand_r_pz	      thighwand_l_px	      thighwand_l_py	      thighwand_l_pz	      upperleg1_r_px	      upperleg1_r_py	      upperleg1_r_pz	      upperleg1_l_px	      upperleg1_l_py	      upperleg1_l_pz	      upperleg2_r_px	      upperleg2_r_py	      upperleg2_r_pz	      upperleg2_l_px	      upperleg2_l_py	      upperleg2_l_pz	      shankwand_r_px	      shankwand_r_py	      shankwand_r_pz	      shankwand_l_px	      shankwand_l_py	      shankwand_l_pz	      lowerleg1_r_px	      lowerleg1_r_py	      lowerleg1_r_pz	      lowerleg1_l_px	      lowerleg1_l_py	      lowerleg1_l_pz	    subclavicle_r_px	    subclavicle_r_py	    subclavicle_r_pz	    subclavicle_l_px	    subclavicle_l_py	    subclavicle_l_pz	
          0.73333333	          1.94078516	          0.03729135	         -0.19535753	          2.10793745	          4.48716981	          2.33786392	          1.48210267	          0.12449954	         -0.27014714	         -2.31597291	          8.24459674	        -34.78018319	         -0.26142827	          1.89356408	          0.81850213	          2.34285637	         -1.37285449	          3.27860682	         18.66264969	          3.43507859	         -0.44517008	        -15.93921099	         -2.53995374	          0.00000000	          0.00000000	        -13.55435972	          1.83976887	         -5.46605143	        -26.93084582	          3.42975947	          0.00000000	          0.00000000	         -3.99890192	          4.29053233	         -3.46346098	          1.98099488	          0.00000000	         -0.20244604	        -46.61375075	        274.29884062	         -2.73673517	          1.62484961	          0.00000000	         -0.27406644	         48.50613767	        208.49288023	         -8.71878027	          0.00000000	         -0.18583089	          0.00000000	          0.00000000	          0.31199759	          0.00000000	          1.85701288	          0.75781074	         -0.26178082	          1.85215336	          0.75649950	         -0.20457417	          1.86187206	          0.75912181	         -0.31898772	          1.92304150	          0.41625728	         -0.19657961	          1.73434651	          0.42785129	         -0.30547091	          1.98932467	          0.06516278	         -0.20540443	          1.53662392	          0.12463921	         -0.27942003	          1.89099471	          0.83093691	         -0.25777717	          1.89686713	          0.83453196	         -0.14824966	          1.88512165	          0.82734168	         -0.36730463	          1.71632574	          0.85959740	         -0.21143862	          1.71612509	          0.85744230	         -0.26495598	          1.95721856	          0.42344920	         -0.13766991	          1.74455670	          0.40690379	         -0.36237873	          1.92730972	          0.42128529	         -0.26040013	          1.77098659	          0.41348179	         -0.24171282	          1.98534103	          0.06359306	         -0.16814751	          1.52798517	          0.12779866	         -0.31474892	          1.99060368	          0.06116744	         -0.23897996	          1.53672810	          0.12912408	         -0.24593374	          1.87809910	          1.18304528	         -0.25337956	          1.88761355	          1.08152100	         -0.26005840	          1.76974934	          1.25198145	         -0.24599338	          2.07185278	          0.05378798	         -0.20371806	          1.59968874	          0.05651220	         -0.28517864	          2.02412656	          0.59008463	         -0.17575440	          1.88704306	          0.53730375	         -0.39438919	          1.96776984	          0.61076646	         -0.13245775	          1.88413164	          0.58517378	         -0.32649094	          1.97321386	          0.55377372	         -0.13987322	          1.86508440	          0.53086023	         -0.31581555	          2.09087587	          0.20082356	         -0.18173006	          1.57979091	          0.20770477	         -0.41193017	          2.01672405	          0.17515890	         -0.19725303	          1.58197127	          0.20282581	         -0.33285569	          1.88051488	          1.18099379	         -0.19698921	          1.88130254	          1.18543268	         -0.30355329	
          0.74166667	          1.94192944	          0.03755243	         -0.19425892	          1.99439210	          4.63730502	          1.84823725	          1.48850881	          0.13036745	         -0.27183863	         -2.37530258	          8.17425842	        -37.24393018	         -0.26151211	          1.90067280	          0.81979909	          2.47305172	         -1.30796519	          3.10592394	         18.13537195	          3.39251974	         -0.04322176	        -16.12735336	         -2.46557871	          0.00000000	          0.00000000	        -13.15364133	          1.88768577	         -5.22132602	        -28.28673592	          1.74681538	          0.00000000	          0.00000000	         -3.99679703	          4.33657242	         -3.28059932	          1.98343091	          0.00000000	         -0.20191817	        -46.69210043	        286.65161945	         -6.79220982	          1.62523096	          0.00000000	         -0.27398972	         44.14580050	        172.37389792	         -8.27364576	          0.00000000	         -0.22036131	          0.00000000	          0.00000000	          0.27563552	          0.00000000	          1.86503678	          0.75930840	         -0.26127837	          1.86001562	          0.75797574	         -0.20408595	          1.87005769	          0.76064082	         -0.31847107	          1.92839156	          0.41724080	         -0.19614343	          1.74652145	          0.42727736	         -0.30714767	          1.98978083	          0.06503311	         -0.20533744	          1.54315946	          0.12873820	         -0.28045426	          1.89896432	          0.83238164	         -0.25716659	          1.90455008	          0.83592098	         -0.14756451	          1.89337797	          0.82884229	         -0.36676861	          1.72418612	          0.86094152	         -0.21184108	          1.72489943	          0.85859557	         -0.26519222	          1.96241078	          0.42379521	         -0.13737908	          1.75575078	          0.40717534	         -0.36419720	          1.93207678	          0.42202981	         -0.25973617	          1.78202091	          0.41327741	         -0.24282211	          1.98603289	          0.06350797	         -0.16805556	          1.53424440	          0.13221224	         -0.31568187	          1.99080021	          0.06089616	         -0.23888625	          1.54361321	          0.13317374	         -0.24695627	          1.88546707	          1.18451558	         -0.25268560	          1.89504870	          1.08300709	         -0.25951575	          1.77700665	          1.25339787	         -0.24494775	          2.07218425	          0.05285489	         -0.20386165	          1.60281846	          0.05691452	         -0.28571122	          2.03067568	          0.58991481	         -0.17608377	          1.89784122	          0.53889191	         -0.39433099	          1.97497543	          0.61154021	         -0.13253665	          1.89358438	          0.58653767	         -0.32632627	          1.97991809	          0.55433176	         -0.13987011	          1.87523725	          0.53210805	         -0.31591980	          2.09328419	          0.19950486	         -0.18233197	          1.58662903	          0.21192380	         -0.41304091	          2.01863602	          0.17440664	         -0.19729136	          1.58936694	          0.20665061	         -0.33392578	          1.88792651	          1.18238512	         -0.19631496	          1.88863110	          1.18697703	         -0.30284322	
          0.75000000	          1.94236503	          0.03802171	         -0.19384339	          2.00725484	          4.81733340	          1.34648395	          1.49595361	          0.13733290	         -0.27378259	         -2.28755700	          8.23596891	        -40.50072585	         -0.26076582	          1.90866132	          0.82141859	          2.50455769	         -1.26244165	          3.00573068	         17.55438219	          3.47605598	          0.28903945	        -16.24726730	         -2.30295121	          0.00000000	          0.00000000	        -12.60029729	          1.80199085	         -4.90219494	        -29.69995763	         -0.73092453	          0.00000000	          0.00000000	         -3.97397257	          4.29933832	         -3.12641801	          1.98531226	          0.00000000	         -0.20155914	        -45.90492801	        298.69118246	         -9.78610155	          1.62550366	          0.00000000	         -0.27409854	         38.18973062	        135.06535836	         -7.47187218	          0.00000000	         -0.30417444	          0.00000000	          0.00000000	          0.21333142	          0.00000000	          1.87301810	          0.76086102	         -0.26076928	          1.86785009	          0.75944975	         -0.20359188	          1.87818596	          0.76227202	         -0.31794691	          1.93298394	          0.41795725	         -0.19568296	          1.75896735	          0.42683274	         -0.30900546	          1.99014336	          0.06496590	         -0.20534946	          1.55048829	          0.13275652	         -0.28148972	          1.90689767	          0.83386164	         -0.25648654	          1.91221969	          0.83725310	         -0.14680813	          1.90157512	          0.83047029	         -0.36616493	          1.73205172	          0.86232403	         -0.21210929	          1.73364732	          0.85981744	         -0.26525491	          1.96709885	          0.42402618	         -0.13704416	          1.76734583	          0.40745269	         -0.36619076	          1.93622959	          0.42240622	         -0.25860351	          1.79319027	          0.41304847	         -0.24435758	          1.98659365	          0.06346170	         -0.16804841	          1.54120394	          0.13660553	         -0.31657783	          1.99091842	          0.06076841	         -0.23887936	          1.55136886	          0.13711735	         -0.24798916	          1.89281514	          1.18603882	         -0.25197797	          1.90249063	          1.08454410	         -0.25887984	          1.78423156	          1.25484177	         -0.24396522	          2.07240029	          0.05208956	         -0.20405423	          1.60625967	          0.05723557	         -0.28622810	          2.03694609	          0.58949080	         -0.17606097	          1.90886831	          0.54065688	         -0.39441253	          1.98171544	          0.61195727	         -0.13228912	          1.90319956	          0.58798147	         -0.32630381	          1.98605520	          0.55455329	         -0.13946540	          1.88554444	          0.53340122	         -0.31623116	          2.09543790	          0.19826302	         -0.18285425	          1.59388094	          0.21635249	         -0.41411743	          2.02036139	          0.17379998	         -0.19733204	          1.59738390	          0.21058926	         -0.33499847	          1.89528260	          1.18386950	         -0.19557869	          1.89597135	          1.18854006	         -0.30216451	
          0.75833333	          1.94268986	          0.03820629	         -0.19376159	          2.00936142	          4.92795738	          0.91330491	          1.50432402	          0.14405160	         -0.27486715	         -2.22925238	          8.46585433	        -44.00861141	         -0.26074743	          1.91649576	          0.82279023	          2.57187872	         -1.26739450	          2.98869049	         16.88329934	          3.55189641	          0.47449665	        -16.27158868	         -2.10545620	          0.00000000	          0.00000000	        -11.98854803	          1.74294413	         -4.61427599	        -31.15542923	         -3.51293325	          0.00000000	          0.00000000	         -3.91231419	          4.17486282	         -3.01376901	          1.98667883	          0.00000000	         -0.20140645	        -44.59208092	        310.58585122	        -11.57742124	          1.62587378	          0.00000000	         -0.27448184	         30.34951490	         98.14271803	         -6.36251911	          0.00000000	         -0.41311698	          0.00000000	          0.00000000	          0.13787717	          0.00000000	          1.88093444	          0.76242456	         -0.26026111	          1.87563946	          0.76087736	         -0.20309916	          1.88622937	          0.76397151	         -0.31742318	          1.93693224	          0.41842474	         -0.19525307	          1.77162740	          0.42655791	         -0.31102374	          1.99045287	          0.06495097	         -0.20545594	          1.55860948	          0.13664166	         -0.28252275	          1.91477612	          0.83533276	         -0.25574841	          1.91986678	          0.83848503	         -0.14600017	          1.90968504	          0.83218061	         -0.36549668	          1.73991201	          0.86370310	         -0.21221750	          1.74222617	          0.86109430	         -0.26515027	          1.97133092	          0.42415553	         -0.13670608	          1.77930243	          0.40772743	         -0.36832738	          1.93988802	          0.42246331	         -0.25713070	          1.80454756	          0.41278212	         -0.24629751	          1.98705906	          0.06344878	         -0.16814096	          1.54887757	          0.14092045	         -0.31743383	          1.99095693	          0.06082397	         -0.23898435	          1.56004478	          0.14086897	         -0.24904004	          1.90014480	          1.18759983	         -0.25126245	          1.90996423	          1.08612032	         -0.25817500	          1.79143830	          1.25625542	         -0.24306294	          2.07255598	          0.05145386	         -0.20433455	          1.61008843	          0.05753364	         -0.28672806	          2.04294624	          0.58883302	         -0.17572887	          1.92007085	          0.54256975	         -0.39466442	          1.98801943	          0.61202112	         -0.13177321	          1.91300472	          0.58947790	         -0.32643944	          1.99167865	          0.55449105	         -0.13873209	          1.89602421	          0.53471281	         -0.31676547	          2.09737313	          0.19708570	         -0.18330995	          1.60158098	          0.22091372	         -0.41513949	          2.02192109	          0.17338766	         -0.19737632	          1.60608466	          0.21452743	         -0.33609205	          1.90260178	          1.18542472	         -0.19481570	          1.90330939	          1.19011405	         -0.30149504	
